<svg width="104" height="104" viewBox="0 0 104 104" fill="none" xmlns="http://www.w3.org/2000/svg">
<path d="M104 52C104 80.7188 80.7188 104 52 104C23.2812 104 0 80.7188 0 52C0 23.2812 23.2812 0 52 0C80.7188 0 104 23.2812 104 52Z" fill="#0029FF"/>
<path fill-rule="evenodd" clip-rule="evenodd" d="M52 98.3631C77.6057 98.3631 98.3631 77.6057 98.3631 52C98.3631 26.3943 77.6057 5.63686 52 5.63686C26.3943 5.63686 5.63686 26.3943 5.63686 52C5.63686 77.6057 26.3943 98.3631 52 98.3631ZM52 104C80.7188 104 104 80.7188 104 52C104 23.2812 80.7188 0 52 0C23.2812 0 0 23.2812 0 52C0 80.7188 23.2812 104 52 104Z" fill="#0029FF"/>
<path d="M74.9249 30.4063C74.7953 29.8034 74.1992 29.2074 73.5944 29.0779C70.0851 28.3252 67.3375 28.3252 64.6018 28.3252C53.3501 28.3252 46.6027 34.342 41.5654 42.2764H30.2066C28.4248 42.2781 26.3312 43.5707 25.5322 45.163L20.1441 55.933C19.9775 56.3003 19.8844 56.6966 19.8699 57.0996C19.8701 57.7934 20.1459 58.4587 20.6365 58.9492C21.1272 59.4398 21.7926 59.7154 22.4864 59.7154H33.8011L31.3515 62.1644C30.1127 63.4027 29.935 65.6803 31.3515 67.0964L36.8997 72.6448C38.1157 73.8642 40.4046 74.0788 41.8347 72.6448L44.2843 70.1959V81.5142C44.2845 82.208 44.5603 82.8733 45.0509 83.3639C45.5416 83.8544 46.2069 84.13 46.9007 84.1301C47.3038 84.1151 47.7002 84.022 48.0677 83.8559L58.8285 78.4726C60.423 77.6773 61.7177 75.5843 61.7177 73.8012V62.4181C69.6304 57.3704 75.6728 50.6025 75.6728 39.4102C75.683 36.6632 75.683 33.9162 74.9249 30.4063ZM61.7279 46.6362C60.8657 46.636 60.0229 46.3801 59.3061 45.9009C58.5893 45.4217 58.0306 44.7407 57.7008 43.9441C57.371 43.1474 57.2848 42.2709 57.4531 41.4252C57.6215 40.5796 58.0368 39.8028 58.6466 39.1932C59.2563 38.5836 60.0332 38.1685 60.8788 38.0004C61.7245 37.8322 62.6011 37.9186 63.3976 38.2486C64.1942 38.5786 64.8751 39.1374 65.3541 39.8544C65.8331 40.5713 66.0888 41.4142 66.0888 42.2764C66.0881 43.4327 65.6284 44.5414 64.8107 45.3589C63.993 46.1764 62.8842 46.6358 61.7279 46.6362Z" fill="#7BDFFF"/>
<path d="M23.2665 28.5801L22.3377 30.4748L20.2596 30.7796C19.8869 30.834 19.7376 31.2962 20.0079 31.561L21.5113 33.035L21.1557 35.1172C21.0917 35.4935 21.4857 35.7754 21.8157 35.5994L23.6748 34.6163L25.5338 35.5994C25.8638 35.774 26.2578 35.4935 26.1938 35.1172L25.8382 33.035L27.3417 31.561C27.6119 31.2962 27.4626 30.834 27.0899 30.7796L25.0118 30.4748L24.083 28.5801C23.9166 28.2424 23.4344 28.2381 23.2665 28.5801Z" fill="white"/>
<path d="M85.9766 56.4825L85.0478 58.3773L82.9697 58.6821C82.597 58.7365 82.4477 59.1987 82.7179 59.4634L84.2214 60.9374L83.8658 63.0196C83.8018 63.396 84.1958 63.6779 84.5258 63.5019L86.3848 62.5188L88.2439 63.5019C88.5739 63.6765 88.9679 63.396 88.9039 63.0196L88.5483 60.9374L90.0517 59.4634C90.322 59.1987 90.1726 58.7365 89.8 58.6821L87.7219 58.3773L86.7931 56.4825C86.6266 56.1448 86.1444 56.1405 85.9766 56.4825Z" fill="white"/>
<path d="M74.1538 69.9841L72.2962 73.7735L68.14 74.3832C67.3946 74.4919 67.0959 75.4164 67.6364 75.9459L70.6433 78.8938L69.9322 83.0582C69.8041 83.811 70.5921 84.3748 71.2521 84.0227L74.9702 82.0565L78.6883 84.0227C79.3483 84.3719 80.1363 83.811 80.0083 83.0582L79.2971 78.8938L82.304 75.9459C82.8445 75.4164 82.5458 74.4919 81.8005 74.3832L77.6443 73.7735L75.7867 69.9841C75.4538 69.3086 74.4895 69.3 74.1538 69.9841Z" fill="white"/>
<path d="M21.7062 65.5959L20.4334 68.1924L17.5856 68.6101C17.0749 68.6846 16.8702 69.3181 17.2406 69.6809L19.3009 71.7008L18.8136 74.5541C18.7259 75.0699 19.2658 75.4562 19.718 75.215L22.2656 73.8678L24.8132 75.215C25.2654 75.4543 25.8053 75.0699 25.7176 74.5541L25.2303 71.7008L27.2906 69.6809C27.661 69.3181 27.4563 68.6846 26.9456 68.6101L24.0978 68.1924L22.825 65.5959C22.597 65.1331 21.9362 65.1272 21.7062 65.5959Z" fill="white"/>
<path d="M41.8828 14.1792L40.0252 17.9686L35.869 18.5783C35.1236 18.687 34.8249 19.6115 35.3654 20.141L38.3723 23.0889L37.6612 27.2533C37.5331 28.0061 38.3211 28.5699 38.9811 28.2178L42.6992 26.2516L46.4173 28.2178C47.0773 28.567 47.8653 28.0061 47.7373 27.2533L47.0261 23.0889L50.033 20.141C50.5735 19.6115 50.2748 18.687 49.5295 18.5783L45.3733 17.9686L43.5157 14.1792C43.1828 13.5037 42.2185 13.4951 41.8828 14.1792Z" fill="white"/>
<path d="M34.6812 80.721L33.7524 82.6158L31.6743 82.9206C31.3016 82.9749 31.1523 83.4372 31.4225 83.7019L32.926 85.1759L32.5704 87.2581C32.5064 87.6345 32.9004 87.9164 33.2304 87.7404L35.0894 86.7572L36.9485 87.7404C37.2785 87.9149 37.6725 87.6345 37.6085 87.2581L37.2529 85.1759L38.7563 83.7019C39.0266 83.4372 38.8772 82.9749 38.5046 82.9206L36.4265 82.6158L35.4976 80.721C35.3312 80.3833 34.849 80.379 34.6812 80.721Z" fill="white"/>
<path d="M70.8327 17.541L70.0759 19.0849L68.3826 19.3333C68.079 19.3776 67.9573 19.7542 68.1775 19.9699L69.4025 21.1709L69.1128 22.8675C69.0606 23.1742 69.3817 23.4039 69.6505 23.2605L71.1653 22.4594L72.6801 23.2605C72.949 23.4028 73.27 23.1742 73.2179 22.8675L72.9281 21.1709L74.1532 19.9699C74.3734 19.7542 74.2517 19.3776 73.948 19.3333L72.2548 19.0849L71.498 17.541C71.3624 17.2659 70.9695 17.2624 70.8327 17.541Z" fill="white"/>
<path d="M54.1386 87.9545L53.5538 89.1475L52.2454 89.3394C52.0108 89.3737 51.9167 89.6647 52.0869 89.8314L53.0335 90.7595L52.8096 92.0705C52.7693 92.3074 53.0174 92.4849 53.2251 92.3741L54.3957 91.7551L55.5662 92.3741C55.774 92.484 56.022 92.3074 55.9817 92.0705L55.7578 90.7595L56.7045 89.8314C56.8746 89.6647 56.7806 89.3737 56.5459 89.3394L55.2375 89.1475L54.6527 87.9545C54.5479 87.7419 54.2443 87.7392 54.1386 87.9545Z" fill="white"/>
<path d="M14.3988 47.5101L13.814 48.7031L12.5055 48.895C12.2709 48.9292 12.1768 49.2203 12.347 49.387L13.2936 50.315L13.0697 51.626C13.0294 51.863 13.2775 52.0405 13.4853 51.9297L14.6558 51.3107L15.8263 51.9297C16.0341 52.0396 16.2822 51.863 16.2419 51.626L16.018 50.315L16.9646 49.387C17.1347 49.2203 17.0407 48.9292 16.8061 48.895L15.4976 48.7031L14.9128 47.5101C14.808 47.2975 14.5044 47.2948 14.3988 47.5101Z" fill="white"/>
<path d="M84.7186 38.0684L84.1338 39.2613L82.8253 39.4533C82.5907 39.4875 82.4967 39.7785 82.6668 39.9452L83.6135 40.8733L83.3896 42.1843C83.3493 42.4213 83.5973 42.5988 83.8051 42.4879L84.9756 41.8689L86.1461 42.4879C86.3539 42.5979 86.602 42.4213 86.5617 42.1843L86.3378 40.8733L87.2844 39.9452C87.4546 39.7785 87.3605 39.4875 87.1259 39.4533L85.8175 39.2613L85.2326 38.0684C85.1279 37.8557 84.8243 37.853 84.7186 38.0684Z" fill="white"/>
</svg>
